{
  "accessors": [
    {
      "bufferView": 2,
      "componentType": 5126,
      "count": 2166,
      "max": [
        0.21594299376010895,
        0.13268999755382538,
        1.692991018295288
      ],
      "min": [
        -0.21594299376010895,
        -0.13268999755382538,
        0.029649000614881516
      ],
      "type": "VEC3"
    },
    {
      "bufferView": 2,
      "byteOffset": 25992,
      "componentType": 5126,
      "count": 2166,
      "max": [
        0.998848557472229,
        0.9996479153633118,
        0.9873414039611816
      ],
      "min": [
        -0.9999754428863525,
        -0.9998262524604797,
        -0.9987739324569702
      ],
      "type": "VEC3"
    },
    {
      "bufferView": 3,
      "componentType": 5126,
      "count": 2166,
      "max": [
        0.9999663233757019,
        0.9983118176460266,
        0.9977576732635498,
        1.0
      ],
      "min": [
        -0.9987077713012695,
        -0.9993220567703247,
        -0.9998634457588196,
        -1.0
      ],
      "type": "VEC4"
    },
    {
      "bufferView": 1,
      "componentType": 5126,
      "count": 2166,
      "max": [
        0.9994999766349792,
        0.996973991394043
      ],
      "min": [
        0.0005000000237487257,
        0.0005000000237487257
      ],
      "type": "VEC2"
    },
    {
      "bufferView": 0,
      "componentType": 5125,
      "count": 10578,
      "type": "SCALAR"
    },
    {
      "bufferView": 2,
      "byteOffset": 51984,
      "componentType": 5126,
      "count": 648,
      "max": [
        0.14871299266815186,
        0.0887880027294159,
        1.0736509561538696
      ],
      "min": [
        -0.16378900408744812,
        -0.13014200329780579,
        0.28901100158691406
      ],
      "type": "VEC3"
    },
    {
      "bufferView": 2,
      "byteOffset": 59760,
      "componentType": 5126,
      "count": 648,
      "max": [
        0.99966961145401,
        0.9995309710502625,
        0.9784696698188782
      ],
      "min": [
        -0.9993321895599365,
        -0.9982886910438538,
        -0.9964064359664917
      ],
      "type": "VEC3"
    },
    {
      "bufferView": 3,
      "byteOffset": 34656,
      "componentType": 5126,
      "count": 648,
      "max": [
        0.7533853054046631,
        0.9954938292503357,
        0.9998669624328613,
        1.0
      ],
      "min": [
        -0.9991236925125122,
        -0.9997818470001221,
        -0.9957240223884583,
        1.0
      ],
      "type": "VEC4"
    },
    {
      "bufferView": 1,
      "byteOffset": 17328,
      "componentType": 5126,
      "count": 648,
      "max": [
        0.99515700340271,
        0.9994999766349792
      ],
      "min": [
        0.0005000000237487257,
        0.0005000000237487257
      ],
      "type": "VEC2"
    },
    {
      "bufferView": 0,
      "byteOffset": 42312,
      "componentType": 5125,
      "count": 3426,
      "type": "SCALAR"
    },
    {
      "bufferView": 2,
      "byteOffset": 67536,
      "componentType": 5126,
      "count": 1125,
      "max": [
        0.04150699824094772,
        0.08174800127744675,
        1.8265390396118164
      ],
      "min": [
        -0.0895949974656105,
        -0.04622500017285347,
        1.4883509874343872
      ],
      "type": "VEC3"
    },
    {
      "bufferView": 2,
      "byteOffset": 81036,
      "componentType": 5126,
      "count": 1125,
      "max": [
        0.9997758269309998,
        0.9986073970794678,
        0.9979624152183533
      ],
      "min": [
        -0.9989787936210632,
        -0.9979638457298279,
        -0.9996034502983093
      ],
      "type": "VEC3"
    },
    {
      "bufferView": 3,
      "byteOffset": 45024,
      "componentType": 5126,
      "count": 1125,
      "max": [
        0.9997886419296265,
        0.9979354739189148,
        0.9852960705757141,
        1.0
      ],
      "min": [
        -0.9990766644477844,
        -0.9976023435592651,
        -0.9910745620727539,
        -1.0
      ],
      "type": "VEC4"
    },
    {
      "bufferView": 1,
      "byteOffset": 22512,
      "componentType": 5126,
      "count": 1125,
      "max": [
        0.9920259714126587,
        0.9994999766349792
      ],
      "min": [
        0.0005000000237487257,
        0.0005000000237487257
      ],
      "type": "VEC2"
    },
    {
      "bufferView": 0,
      "byteOffset": 56016,
      "componentType": 5125,
      "count": 5616,
      "type": "SCALAR"
    }
  ],
  "asset": {
    "extras": {
      "author": "WhyBlue (https://sketchfab.com/whyblue)",
      "license": "CC-BY-4.0 (http://creativecommons.org/licenses/by/4.0/)",
      "source": "https://sketchfab.com/3d-models/hanged-man-a96aa64ae83049e48c0fe6f5abe46422",
      "title": "Hanged Man"
    },
    "generator": "Sketchfab-12.66.0",
    "version": "2.0"
  },
  "bufferViews": [
    {
      "buffer": 0,
      "byteLength": 78480,
      "name": "floatBufferViews",
      "target": 34963
    },
    {
      "buffer": 0,
      "byteLength": 31512,
      "byteOffset": 78480,
      "byteStride": 8,
      "name": "floatBufferViews",
      "target": 34962
    },
    {
      "buffer": 0,
      "byteLength": 94536,
      "byteOffset": 109992,
      "byteStride": 12,
      "name": "floatBufferViews",
      "target": 34962
    },
    {
      "buffer": 0,
      "byteLength": 63024,
      "byteOffset": 204528,
      "byteStride": 16,
      "name": "floatBufferViews",
      "target": 34962
    }
  ],
  "buffers": [
    {
      "byteLength": 267552,
      "uri": "scene.bin"
    }
  ],
  "images": [
    {
      "uri": "textures/Blue_baseColor.jpeg"
    },
    {
      "uri": "textures/Blue_metallicRoughness.png"
    },
    {
      "uri": "textures/Blue_normal.png"
    },
    {
      "uri": "textures/Green_baseColor.jpeg"
    },
    {
      "uri": "textures/Green_metallicRoughness.png"
    },
    {
      "uri": "textures/Green_normal.png"
    },
    {
      "uri": "textures/Yellow_baseColor.jpeg"
    },
    {
      "uri": "textures/Yellow_metallicRoughness.png"
    },
    {
      "uri": "textures/Yellow_normal.png"
    }
  ],
  "materials": [
    {
      "doubleSided": true,
      "name": "Blue",
      "normalTexture": {
        "index": 2
      },
      "occlusionTexture": {
        "index": 1
      },
      "pbrMetallicRoughness": {
        "baseColorTexture": {
          "index": 0
        },
        "metallicRoughnessTexture": {
          "index": 1
        }
      }
    },
    {
      "doubleSided": true,
      "name": "Green",
      "normalTexture": {
        "index": 5
      },
      "occlusionTexture": {
        "index": 4
      },
      "pbrMetallicRoughness": {
        "baseColorTexture": {
          "index": 3
        },
        "metallicRoughnessTexture": {
          "index": 4
        }
      }
    },
    {
      "doubleSided": true,
      "name": "Yellow",
      "normalTexture": {
        "index": 8
      },
      "occlusionTexture": {
        "index": 7
      },
      "pbrMetallicRoughness": {
        "baseColorTexture": {
          "index": 6
        },
        "metallicRoughnessTexture": {
          "index": 7
        }
      }
    }
  ],
  "meshes": [
    {
      "name": "Object_0",
      "primitives": [
        {
          "attributes": {
            "NORMAL": 1,
            "POSITION": 0,
            "TANGENT": 2,
            "TEXCOORD_0": 3
          },
          "indices": 4,
          "material": 0,
          "mode": 4
        }
      ]
    },
    {
      "name": "Object_1",
      "primitives": [
        {
          "attributes": {
            "NORMAL": 6,
            "POSITION": 5,
            "TANGENT": 7,
            "TEXCOORD_0": 8
          },
          "indices": 9,
          "material": 1,
          "mode": 4
        }
      ]
    },
    {
      "name": "Object_2",
      "primitives": [
        {
          "attributes": {
            "NORMAL": 11,
            "POSITION": 10,
            "TANGENT": 12,
            "TEXCOORD_0": 13
          },
          "indices": 14,
          "material": 2,
          "mode": 4
        }
      ]
    }
  ],
  "nodes": [
    {
      "children": [
        1
      ],
      "matrix": [
        1.0,
        0.0,
        0.0,
        0.0,
        0.0,
        2.220446049250313e-16,
        -1.0,
        0.0,
        0.0,
        1.0,
        2.220446049250313e-16,
        0.0,
        0.0,
        0.0,
        0.0,
        1.0
      ],
      "name": "Sketchfab_model"
    },
    {
      "children": [
        2,
        3,
        4
      ],
      "name": "he_ded.obj.cleaner.materialmerger.gles"
    },
    {
      "mesh": 0,
      "name": "Object_2"
    },
    {
      "mesh": 1,
      "name": "Object_3"
    },
    {
      "mesh": 2,
      "name": "Object_4"
    }
  ],
  "samplers": [
    {
      "magFilter": 9729,
      "minFilter": 9987,
      "wrapS": 10497,
      "wrapT": 10497
    }
  ],
  "scene": 0,
  "scenes": [
    {
      "name": "Sketchfab_Scene",
      "nodes": [
        0
      ]
    }
  ],
  "textures": [
    {
      "sampler": 0,
      "source": 0
    },
    {
      "sampler": 0,
      "source": 1
    },
    {
      "sampler": 0,
      "source": 2
    },
    {
      "sampler": 0,
      "source": 3
    },
    {
      "sampler": 0,
      "source": 4
    },
    {
      "sampler": 0,
      "source": 5
    },
    {
      "sampler": 0,
      "source": 6
    },
    {
      "sampler": 0,
      "source": 7
    },
    {
      "sampler": 0,
      "source": 8
    }
  ]
}
